<svg id="Capa_1" data-name="Capa 1" xmlns="http://www.w3.org/2000/svg" viewBox="0 0 350 350"><defs><style>.cls-1{fill:#dd0837}.cls-2{fill:#101d2d}</style></defs><path class="cls-1" d="M171.11,133.74,263.18,23.86A174.16,174.16,0,0,0,175,0c-5.21,0-10.36.27-15.45.72Z"/><path class="cls-1" d="M333.21,100.17,219.75,179.83l99.16,94.71a175,175,0,0,0,14.3-174.37Z"/><path class="cls-1" d="M117.6,179.83l-48.71-144a174.93,174.93,0,0,0-3.8,275.27Z"/><path class="cls-1" d="M172.08,228l-21,120.31A176.74,176.74,0,0,0,175,350a174.73,174.73,0,0,0,55.45-9Z"/><path class="cls-2" d="M277.3,317.6s6.79-5.12,9-6.92c2.39-2,9.29-8.24,9.29-8.24L178,175.3,309.54,63.69s-6.18-7.08-8.34-9.34c-1.93-2-8-7.8-8-7.8L175,175.3Z"/></svg>